# xmcd
#
# Track frame offsets:
#	150
#	14640
#	29860
#	42187
#	58768
#	72757
#	92579
#	105420
#	117932
#	130641
#	144100
#	180385
#	189081
#	211388
#	224498
#	236943
#	267924
#
# Disc length: 4419 seconds
#
# Revision: 0
# Processed by: cddbd v1.5.1PL0 Copyright (c) Steve Scherf et al.
# Submitted via: dBpowerAMP V4.0
#
DISCID=f3114111
DTITLE=Q65 - Afghanistan
DYEAR=1975
DGENRE=Blues
TTITLE0=Love is such a good thing
TTITLE1=Baby don't Worry
TTITLE2=I'm glad
TTITLE3=Nobody knows you when you're down and out
TTITLE4=Please come back to me
TTITLE5=We are happy
TTITLE6=I gotta move
TTITLE7=There was a day
TTITLE8=Don't let me fall
TTITLE9=Crumblin'
TTITLE10=Night
TTITLE11=Sexy Legs
TTITLE12=I just can't wait
TTITLE13=We're gonna make it
TTITLE14=Saddy
TTITLE15=On the highway
TTITLE16=Rock and Roll medley
EXTD=
EXTT0=
EXTT1=
EXTT2=
EXTT3=
EXTT4=
EXTT5=
EXTT6=
EXTT7=
EXTT8=
EXTT9=
EXTT10=
EXTT11=
EXTT12=
EXTT13=
EXTT14=
EXTT15=
EXTT16=
PLAYORDER=
